<?xml version="1.0" encoding="utf-8"?>
<!-- Generator: Adobe Illustrator 26.1.0, SVG Export Plug-In . SVG Version: 6.00 Build 0)  -->
<svg version="1.1" id="Layer_1" xmlns="http://www.w3.org/2000/svg" xmlns:xlink="http://www.w3.org/1999/xlink" x="0px" y="0px"
	 viewBox="0 0 180 46.09" style="enable-background:new 0 0 180 46.09;" xml:space="preserve">
<style type="text/css">
	.st0{fill:#E8473E;}
	.st1{fill:#99999A;}
</style>
<path class="st0" d="M76.82,10.46c1.58,0,2.89,1.31,2.89,2.89c0,1.58-1.31,2.89-2.89,2.89h-4.33v11.61c0,1.58-1.31,2.89-2.89,2.89
	c-1.58,0-2.89-1.31-2.89-2.89V9.66C66.72,4.88,70.6,1,75.38,1h1.44c1.58,0,2.89,1.31,2.89,2.89s-1.31,2.89-2.89,2.89h-1.44
	c-1.58,0-2.89,1.31-2.89,2.89v0.8L76.82,10.46L76.82,10.46z"/>
<path class="st0" d="M169.56,30.76c-5.76,0-10.44-4.7-10.44-10.47c0-5.78,4.68-10.47,10.44-10.47c5.76,0,10.44,4.69,10.44,10.47
	C180,26.06,175.32,30.76,169.56,30.76 M169.56,15.52c-2.62,0-4.74,2.14-4.74,4.77c0,2.63,2.13,4.77,4.74,4.77
	c2.61,0,4.74-2.14,4.74-4.77C174.3,17.66,172.17,15.52,169.56,15.52"/>
<path class="st0" d="M148.67,30.76c-1.57,0-2.85-1.28-2.85-2.85v-7.81c0-5.77,4.68-10.47,10.44-10.47c1.58,0,2.85,1.28,2.85,2.85
	c0,1.58-1.27,2.85-2.85,2.85c-2.61,0-4.74,2.14-4.74,4.77v7.81C151.52,29.48,150.25,30.76,148.67,30.76"/>
<path class="st0" d="M132.48,30.76c-5.76,0-10.44-4.7-10.44-10.47v-7.81c0-1.57,1.27-2.85,2.85-2.85c1.58,0,2.85,1.27,2.85,2.85
	v7.82c0,2.63,2.13,4.77,4.74,4.77c2.61,0,4.74-2.14,4.74-4.77v-7.82c0-1.57,1.28-2.85,2.85-2.85c1.57,0,2.85,1.27,2.85,2.85v7.82
	C142.92,26.06,138.23,30.76,132.48,30.76"/>
<path class="st0" d="M92.86,30.76c-5.76,0-10.44-4.7-10.44-10.47v-7.81c0-1.57,1.28-2.85,2.85-2.85c1.58,0,2.85,1.27,2.85,2.85v7.82
	c0,2.63,2.13,4.77,4.74,4.77c2.61,0,4.74-2.14,4.74-4.77v-7.82c0-1.57,1.28-2.85,2.85-2.85c1.57,0,2.85,1.27,2.85,2.85v7.82
	C103.3,26.06,98.62,30.76,92.86,30.76"/>
<path class="st0" d="M60.87,30.79c-1.58,0-2.85-1.27-2.85-2.85v-7.81c0-2.63-2.13-4.77-4.74-4.77c-2.61,0-4.74,2.14-4.74,4.77v7.81
	c0,1.58-1.28,2.85-2.85,2.85c-1.58,0-2.85-1.27-2.85-2.85v-7.81c0-5.78,4.68-10.47,10.44-10.47c5.76,0,10.44,4.7,10.44,10.47v7.81
	C63.72,29.52,62.45,30.79,60.87,30.79"/>
<path class="st0" d="M116.25,15.57c1.58,0,2.88-1.31,2.88-2.89c0-1.58-1.3-2.89-2.88-2.89h-4.33V3.89c0-1.58-1.31-2.89-2.89-2.89
	c-1.58,0-2.89,1.31-2.89,2.89v18.19c0,4.78,3.87,8.66,8.66,8.66h1.44c1.58,0,2.88-1.31,2.88-2.89c0-1.58-1.3-2.89-2.88-2.89h-1.44
	c-1.58,0-2.89-1.3-2.89-2.88v-6.5L116.25,15.57L116.25,15.57z"/>
<path class="st0" d="M30.23,9.86c-4.22,0-7.58,2.42-9.49,6.13c-3.75,7.3-6.36,9.11-9.7,9.11c-2.61,0-4.74-2.14-4.74-4.77
	c0-2.63,2.13-4.77,4.74-4.77c1.19,0,2.32,0.44,3.2,1.25c1.16,1.07,2.96,1,4.03-0.16c1.07-1.16,0.99-2.96-0.17-4.03
	c-1.93-1.78-4.44-2.76-7.06-2.76C5.28,9.86,0.6,14.55,0.6,20.32c0,5.77,4.68,10.47,10.44,10.47c4.4,0,7.39-1.9,10.15-5.25
	c1.8,3.13,5.18,5.26,9.04,5.26c5.75,0,10.44-4.7,10.44-10.47C40.66,14.55,35.98,9.86,30.23,9.86 M30.23,25.09
	c-2.62,0-4.74-2.14-4.74-4.77c0-0.6,0.12-1.17,0.32-1.69c0.26-0.45,0.54-0.91,0.81-1.39c0.87-1.03,2.16-1.69,3.61-1.69
	c2.61,0,4.74,2.14,4.74,4.77C34.97,22.95,32.84,25.09,30.23,25.09"/>
<path class="st1" d="M120.81,43.11c-0.95,0-1.59-0.31-2.01-0.58l0.43-0.74c0.3,0.22,0.86,0.51,1.55,0.51c0.61,0,1.32-0.29,1.32-0.98
	c0-1.15-1.7-1.39-2.55-2.33c-0.3-0.32-0.49-0.73-0.49-1.27c0-1,0.77-1.81,2.11-1.81c0.75,0,1.28,0.18,1.62,0.35l-0.01,0.94
	c-0.43-0.27-0.99-0.47-1.57-0.47c-0.65,0-1.19,0.27-1.19,0.89c0,1.47,3.1,1.46,3.1,3.6C123.11,42.36,122.11,43.11,120.81,43.11"/>
<path class="st1" d="M124.99,36.92c0.63-0.63,1.51-1,2.52-1c1.09,0,2.02,0.41,2.64,1.1c0.56,0.64,0.89,1.5,0.89,2.5
	c0,1.08-0.38,2-1.04,2.65c-0.62,0.61-1.48,0.95-2.49,0.95c-0.97,0-1.79-0.31-2.41-0.87c-0.69-0.64-1.1-1.59-1.1-2.7
	C124,38.48,124.36,37.57,124.99,36.92 M127.51,36.77c-1.52,0-2.5,1.07-2.5,2.75c0,1.69,0.98,2.75,2.5,2.75c1.51,0,2.5-1.07,2.5-2.75
	C130.01,37.92,129.12,36.77,127.51,36.77"/>
<path class="st1" d="M138.17,43v-4.78c0-0.26,0-0.42,0.02-0.75h-0.01c-0.11,0.29-0.27,0.52-0.38,0.7l-1.74,2.77h-0.56l-1.86-2.78
	c-0.11-0.19-0.24-0.37-0.38-0.69h-0.02c0.04,0.33,0.04,0.49,0.04,0.74V43h-0.95v-7.03h0.93l2.14,3.17c0.18,0.29,0.3,0.47,0.38,0.66
	h0.02c0.09-0.18,0.17-0.37,0.36-0.67l2.01-3.16h0.95V43H138.17L138.17,43z"/>
<path class="st1" d="M141.4,36.92c0.63-0.63,1.51-1,2.52-1c1.09,0,2.02,0.41,2.64,1.1c0.57,0.64,0.89,1.5,0.89,2.5
	c0,1.08-0.39,2-1.04,2.65c-0.63,0.61-1.48,0.95-2.49,0.95c-0.97,0-1.79-0.31-2.41-0.87c-0.69-0.64-1.1-1.59-1.1-2.7
	C140.41,38.48,140.77,37.57,141.4,36.92 M143.93,36.77c-1.52,0-2.5,1.07-2.5,2.75c0,1.69,0.98,2.75,2.5,2.75
	c1.51,0,2.5-1.07,2.5-2.75C146.42,37.92,145.52,36.77,143.93,36.77"/>
<path class="st1" d="M150.34,43.11c-0.95,0-1.59-0.31-2.01-0.58l0.43-0.74c0.3,0.22,0.87,0.51,1.55,0.51c0.61,0,1.32-0.29,1.32-0.98
	c0-1.15-1.69-1.39-2.55-2.33c-0.3-0.32-0.49-0.73-0.49-1.27c0-1,0.77-1.81,2.11-1.81c0.74,0,1.28,0.18,1.62,0.35l-0.01,0.94
	c-0.43-0.27-0.99-0.47-1.57-0.47c-0.65,0-1.19,0.27-1.19,0.89c0,1.47,3.09,1.46,3.09,3.6C152.65,42.36,151.64,43.11,150.34,43.11"/>
<path class="st1" d="M159.59,43.11c-2.14,0-3.43-1.51-3.43-3.54c0-2.04,1.45-3.65,3.61-3.65c0.81,0,1.44,0.19,1.81,0.41l-0.01,0.94
	c-0.53-0.33-1.05-0.52-1.8-0.52c-1.59,0-2.57,1.23-2.57,2.77c0,1.59,0.95,2.75,2.53,2.75c0.61,0,1.19-0.18,1.68-0.44l0.28,0.74
	C160.97,42.94,160.27,43.11,159.59,43.11"/>
<path class="st1" d="M165.89,43.11c-2.13,0-3.43-1.51-3.43-3.54c0-2.04,1.45-3.65,3.61-3.65c0.81,0,1.44,0.19,1.81,0.41l-0.01,0.94
	c-0.53-0.33-1.04-0.52-1.8-0.52c-1.59,0-2.57,1.23-2.57,2.77c0,1.59,0.95,2.75,2.53,2.75c0.61,0,1.19-0.18,1.67-0.44l0.28,0.74
	C167.27,42.94,166.57,43.11,165.89,43.11"/>
<path class="st1" d="M172.21,43v-3.07c0-0.61-0.11-1.24-0.86-1.24c-0.55,0-1.06,0.37-1.44,0.7V43h-0.94v-7.56h0.94v3.09
	c0.53-0.41,1.05-0.7,1.74-0.7c0.74,0,1.51,0.44,1.51,1.86V43L172.21,43L172.21,43L172.21,43L172.21,43z"/>
<path class="st1" d="M177.68,43.11c-2.13,0-3.43-1.51-3.43-3.54c0-2.04,1.45-3.65,3.61-3.65c0.81,0,1.44,0.19,1.8,0.41l-0.01,0.94
	c-0.53-0.33-1.04-0.52-1.8-0.52c-1.59,0-2.57,1.23-2.57,2.77c0,1.59,0.95,2.75,2.53,2.75c0.6,0,1.18-0.18,1.68-0.44l0.28,0.74
	C179.07,42.94,178.36,43.11,177.68,43.11"/>
</svg>
